<?xml version="1.0" encoding="UTF-8" standalone="no"?><!DOCTYPE svg PUBLIC "-//W3C//DTD SVG 1.1//EN" "http://www.w3.org/Graphics/SVG/1.1/DTD/svg11.dtd"><svg width="100%" height="100%" viewBox="0 0 86 100" version="1.1" xmlns="http://www.w3.org/2000/svg" xmlns:xlink="http://www.w3.org/1999/xlink" xml:space="preserve" xmlns:serif="http://www.serif.com/" style="fill-rule:evenodd;clip-rule:evenodd;stroke-linejoin:round;stroke-miterlimit:2;"><path d="M74.832,72.987c1.089,-0.965 2.126,-1.956 2.819,-3.174c0.872,-1.535 0.795,-2.989 -0.236,-4.316c-1.191,-1.575 -3.866,-3.055 -9.607,-5.02c-4.426,-1.488 -8.964,-2.723 -13.382,-4.231c-1.672,-0.57 -3.324,-1.176 -4.858,-1.986c-0.811,-0.427 -1.546,-0.93 -2.19,-1.532c-1.05,-0.983 -1.235,-2.016 -0.534,-3.218c0.695,-1.191 1.803,-2.094 2.967,-2.941c3.231,-2.353 6.804,-4.294 10.441,-6.149c5.48,-2.794 11.089,-5.38 17.023,-7.424c0.96,-0.331 1.922,-0.67 3.028,-0.837c-0.263,0.553 -0.646,0.962 -1.004,1.38c-2.635,3.077 -5.612,5.913 -8.591,8.747c-1.96,1.864 -3.96,3.698 -5.932,5.553c-0.375,0.353 -0.718,0.733 -1.05,1.117c-0.233,0.268 -0.276,0.571 -0.079,0.881c0.331,0.52 0.792,0.599 1.297,0.201c2.685,-2.115 5.304,-4.287 7.87,-6.504c2.81,-2.428 5.572,-4.895 8.108,-7.536c0.918,-0.956 1.833,-1.915 2.455,-3.043c0.682,-1.237 0.507,-2.338 -0.502,-3.067c-0.757,-0.548 -1.646,-0.694 -2.615,-0.557c-2.467,0.348 -4.763,1.136 -7.017,2.01c-7.998,3.1 -15.617,6.763 -22.715,11.179c-1.893,1.178 -3.677,2.471 -5.099,4.08c-1.202,1.359 -1.849,2.851 -1.42,4.567c0.314,1.255 1.182,2.237 2.275,3.084c1.894,1.466 4.172,2.374 6.525,3.151c4.021,1.327 8.16,2.366 12.238,3.555c0.279,0.081 0.558,0.165 0.837,0.25c3.479,0.938 6.269,1.925 8.712,3.307c0.121,0.024 1.085,0.625 1.216,0.744c1.422,1.291 1.632,2.407 0.655,3.987c-0.98,1.585 -2.453,2.829 -4.017,3.991c-3.585,2.661 -7.551,4.875 -11.606,6.97c-10.454,5.401 -21.352,10.047 -32.793,13.752c-2.839,0.921 -5.726,1.722 -8.73,2.176c-0.744,0.113 -1.494,0.183 -2.253,0.159c-0.918,-0.031 -1.185,-0.321 -0.944,-1.076c0.194,-0.607 0.545,-1.159 0.929,-1.692c1.705,-2.37 3.803,-4.479 6.053,-6.48c0.867,-0.77 1.819,-1.473 2.733,-2.206c-0.052,-0.046 -0.105,-0.093 -0.157,-0.139c-0.678,0.514 -1.362,1.023 -2.033,1.543c-2.402,1.864 -4.796,3.736 -6.935,5.825c-0.768,0.751 -1.428,1.556 -1.773,2.519c-0.563,1.57 0.47,2.875 2.39,2.999c1.905,0.123 3.735,-0.255 5.549,-0.668c5.554,-1.26 10.822,-3.169 16.03,-5.195c8.986,-3.493 17.677,-7.455 25.932,-12.08c3.542,-1.985 7.032,-4.036 9.99,-6.656Zm-60.128,2.261c0.283,-0.531 0.557,-1.065 0.851,-1.592c5.106,-9.14 10.839,-17.984 17.473,-26.395c3.962,-5.023 8.279,-9.807 13.363,-14.064c1.227,-1.028 2.495,-2.018 3.891,-2.909c-11.731,15.056 -22.764,30.506 -35.578,44.96Zm46.937,-61.296c-2.756,4.887 -6.177,9.448 -9.556,14.029c-0.139,0.189 -0.336,0.316 -0.533,0.447c-2.956,1.973 -5.831,4.027 -8.507,6.273c-5.465,4.587 -10.127,9.724 -14.36,15.153c-5.4,6.928 -10.205,14.149 -14.72,21.512c-1.884,3.074 -3.75,6.156 -5.336,9.353c-0.105,0.212 -0.204,0.426 -0.29,0.644c-0.453,1.139 -0.353,1.679 0.613,2.386c1.007,0.656 1.704,0.656 2.773,0.026c3.026,-2.523 5.403,-5.45 7.887,-8.297c6.562,-7.52 12.541,-15.376 18.458,-23.266c6.217,-8.289 12.537,-16.524 18.624,-24.883c0.275,-0.377 0.579,-0.744 0.804,-1.142c0.515,-0.914 1.469,-1.151 2.528,-1.234c0.447,-0.036 0.564,0.038 1.51,0.699c-0.132,-0.837 -0.652,-1.002 -2.998,-0.923c0.481,-0.706 0.949,-1.383 1.405,-2.065c2.169,-3.245 4.27,-6.518 5.756,-10.045c0.563,-1.334 1.009,-2.692 1.009,-4.128c-0.002,-3.068 -1.866,-5.08 -5.399,-5.802c-2.561,-0.523 -5.123,-0.34 -7.67,0.057c-5.409,0.842 -10.498,2.501 -15.426,4.518c-10.222,4.183 -19.491,9.573 -27.874,16.058c-2.022,1.564 -3.896,3.25 -5.5,5.14c-0.85,1.002 -1.592,2.052 -2.112,3.211c-0.792,1.217 -0.676,2.598 0.09,3.684c1.294,1.972 3.483,2.833 5.882,3.434c2.971,0.745 6.017,1.073 9.117,1.061c3.391,-0.014 6.783,0.001 10.174,-0.005c1.957,-0.003 3.914,-0.019 5.871,-0.036c0.255,-0.002 0.627,0.065 0.65,-0.254c0.021,-0.281 -0.289,-0.413 -0.59,-0.455c-1.134,-0.16 -2.282,-0.091 -3.423,-0.104c-4.048,-0.048 -8.097,-0.058 -12.145,-0.109c-3.5,-0.044 -6.954,-0.374 -10.286,-1.351c-0.715,-0.21 -1.401,-0.476 -2.038,-0.827c-1.661,-0.916 -2.221,-2.161 -1.694,-3.784c0.413,-1.271 1.212,-2.376 2.104,-3.435c2.02,-2.396 4.479,-4.447 7.089,-6.367c7.38,-5.428 15.386,-10.075 24.14,-13.767c4.723,-1.992 9.582,-3.693 14.736,-4.724c2.266,-0.453 4.553,-0.778 6.898,-0.678c0.563,0.023 1.115,0.089 1.665,0.192c2.25,0.422 3.193,1.597 3.014,3.601c-0.199,2.219 -1.226,4.226 -2.34,6.203Z" style="fill:#fff;fill-rule:nonzero;"/></svg>