<?xml version="1.0" encoding="UTF-8" standalone="no"?>
<!DOCTYPE svg PUBLIC "-//W3C//DTD SVG 1.1//EN" "http://www.w3.org/Graphics/SVG/1.1/DTD/svg11.dtd">
<svg width="100%" height="100%" viewBox="0 0 1844 1018" version="1.1" xmlns="http://www.w3.org/2000/svg" xmlns:xlink="http://www.w3.org/1999/xlink" xml:space="preserve" xmlns:serif="http://www.serif.com/" style="fill-rule:evenodd;clip-rule:evenodd;stroke-linejoin:round;stroke-miterlimit:2;">
    <rect x="0" y="0" width="1843.2" height="1017.52" style="fill:none;"/>
    <g>
        <g>
            <g>
                <path d="M92.41,1016.22C97.688,1014.01 104.32,1008.32 112.484,998.986C146.599,959.977 215.372,865.985 274.921,776.982C301.441,737.345 324.673,701.681 361.07,644.733C373.915,624.635 412.481,564.34 446.772,510.744C527.897,383.947 559.864,333.306 580.543,298.826C588.16,286.126 587.946,286.318 598.517,282.685C605.389,280.323 612.704,279.998 616.367,281.893C617.727,282.596 620.227,284.841 621.921,286.881C623.616,288.921 625.212,290.38 625.47,290.122C626.552,289.04 622.136,282.333 618.835,280.045C615.811,277.949 614.225,277.521 608.523,277.262C604.242,277.068 600.169,277.43 597.355,278.254C594.867,278.984 592.926,279.188 592.926,278.721C592.926,278.264 595.62,273.315 598.912,267.723C645.376,188.805 672.61,128.446 678.087,92.245C683.99,53.225 671.572,25.803 641.118,10.602C610.18,-4.84 561.641,-3.408 497.608,14.834C395.002,44.066 273.913,109.172 161.813,195.382C71.532,264.816 18.343,322.221 2.798,367.009C0.192,374.518 0.017,375.774 0.001,387.197C-0.015,397.87 0.238,400.078 2.045,405.033C9.037,424.207 28.44,440.08 57.23,450.181C67.446,453.765 90.516,459.388 103.954,461.569C133.411,466.35 134.525,466.389 234.463,466.158C285.427,466.04 329.3,465.94 331.961,465.94C338.118,465.936 340.515,464.414 339.135,461.384C338.601,460.211 336.666,458.541 334.837,457.673C331.725,456.196 325.913,456.051 244.487,455.413C196.624,455.038 151.59,454.303 144.412,453.78C116.767,451.765 91.036,447.398 69.879,441.132C19.804,426.301 6.989,402.06 27.687,361.323C49.37,318.649 103.656,264.293 187.044,201.762C272.219,137.893 360.531,87.453 445.807,53.97C538.927,17.407 615.217,8.709 640.267,31.799C656.408,46.677 654.486,78.576 634.608,125.744C628.339,140.62 608.93,179.212 597.632,199.264C585.094,221.518 554.373,272.605 537.463,299.321L523.695,321.072L514.59,328.287C452.945,377.136 413.033,415.821 364.048,474.202C304.162,545.574 235.513,650.928 163.353,782.202C117.313,865.959 72.288,956.162 62.872,983.507C57.232,999.887 60.677,1009.53 74.397,1015.75L74.396,1015.75C79.15,1017.91 87.832,1018.13 92.41,1016.22ZM160.528,842.236C224.767,712.671 298.451,589.187 364.822,499.868C410.13,438.896 454.436,390.043 499.396,351.486C507.807,344.273 509.081,343.323 508.103,344.998C506.18,348.289 486.878,378.032 451.075,432.874C402.966,506.565 363.559,567.105 330.604,617.95C262.42,723.149 211.563,797.667 152.593,878.779C128.131,912.426 128.381,912.093 128.344,911.116C128.278,909.394 145.411,872.725 160.528,842.236Z" style="fill-rule:nonzero;"/>
            </g>
            <g>
                <path d="M865.146,514.62C890.94,501.203 913.159,485.694 918.381,477.46C923.638,469.17 920.861,460.611 911.991,457.765C901.368,454.357 849.424,488.805 841.007,504.84C839.564,507.589 830.081,510.38 820.248,510.949C813.414,511.345 812.138,511.207 811.684,510.023C810.706,507.475 813.937,500.147 819.668,491.915C824.945,484.342 825.31,483.504 824.945,479.968C824.666,477.268 823.831,475.453 822.065,473.712C817.896,469.602 815.837,469.646 809.495,473.979C801.332,479.556 757.951,506.033 749.442,510.631C741.923,514.694 730.479,519.38 729.78,518.682C729.162,518.064 730.865,515.211 740.639,500.495C751.097,484.749 752.136,481.554 748.641,475.899C746.435,472.329 741.736,469.89 738.815,470.798C736.281,471.586 722.099,481.826 702.989,496.667C686.305,509.624 675.848,516.955 675.108,516.215C674.859,515.966 677.873,511.305 681.807,505.857C693.228,490.041 696.265,485.351 696.871,482.591C698.202,476.532 693.507,468.844 687.207,466.765C684.487,465.867 683.665,466.008 679.744,468.043C677.32,469.301 675.207,470.2 675.049,470.042C674.891,469.884 676.194,467.627 677.945,465.027C683.957,456.099 682.274,446.916 673.839,442.632C669.26,440.307 666.713,440.637 663.081,444.028C661.708,445.31 652.953,455.507 643.625,466.688C627.883,485.557 617.717,496.189 599.017,513.338C581.834,529.097 553.434,552.07 551.135,552.07C550.595,552.07 552.017,548.644 554.295,544.457C569.817,515.931 593.404,481.964 611.708,461.777C615.812,457.252 619.028,452.932 619.028,451.946C619.028,449.344 616.78,445.462 614.172,443.562L611.877,441.89L614.091,437.522C622.374,421.176 622.247,405.689 613.751,396.037C606.744,388.076 597.181,386.257 587.271,390.999C572.857,397.896 548.215,420.679 518.455,454.624C479.112,499.499 452.807,543.898 451.334,567.915C450.906,574.899 451.055,575.873 453.23,580.32C455.937,585.853 459.727,589.124 464.648,590.172L464.647,590.172C468.893,591.077 473.719,590.068 479.068,587.157C489.638,581.404 513.009,561.85 536.633,538.994L551.251,524.851L546.068,534.929C536.416,553.695 534.976,560.771 539.766,565.898C541.413,567.661 543.126,568.6 544.697,568.6C548.324,568.6 557.245,563.313 570.186,553.495C576.581,548.643 582.502,544.169 583.343,543.554C584.716,542.549 584.97,542.82 585.822,546.206C587.774,553.959 593.425,559.03 600.111,559.03C603.127,559.03 604.317,558.168 614.045,548.936C625.084,538.461 647.218,519.877 648.656,519.877C649.108,519.877 649.498,521.541 649.498,523.575C649.537,531.015 655.355,539.037 662.058,540.892C670.146,543.131 682.408,537.293 701.129,522.29C706.937,517.636 711.972,513.818 712.319,513.807C712.667,513.796 712.716,514.955 712.431,516.384C712.145,517.813 712.38,520.847 712.953,523.127C715.989,535.205 725.744,538.695 740.529,532.993C748.81,529.799 756.994,525.154 778.683,511.337L795.214,500.806L795.837,506.203C797.091,517.067 803.657,525.164 813.348,527.797C817.781,529.001 829.01,528.338 835.938,526.462L840.99,525.094L844.311,527.763C854.113,535.641 875.907,536.565 914.412,530.737C922.068,529.578 942.819,525.903 960.525,522.57C978.231,519.237 999.177,515.467 1007.07,514.191C1014.97,512.916 1021.92,511.472 1022.52,510.983C1023.12,510.494 1023.61,509.335 1023.61,508.407C1023.61,506.859 1023.12,506.759 1017.73,507.185C1014.5,507.44 1007.36,507.874 1001.85,508.148C989.249,508.777 960.224,511.834 918.329,516.945C886.956,520.772 858.848,522.683 855.096,521.243C853.954,520.809 856.596,519.067 865.146,514.62ZM489.126,554.75C483.483,558.713 480.932,559.98 481.819,558.38C493.568,537.173 511.572,511.779 530.707,489.428C545.263,472.425 566.032,450.344 576.231,441.028C589.1,429.273 589.381,429.038 589.915,429.572C590.176,429.833 584.933,440.765 578.264,453.864C571.595,466.964 565.255,480.227 564.175,483.337C562.53,488.077 561.072,490.164 555.166,496.229C535.628,516.293 504.084,544.244 489.126,554.75Z" style="fill-rule:nonzero;"/>
            </g>
            <g>
                <path d="M1841.24,380.259C1829.73,377.642 1815.72,375.94 1791,374.151C1780.71,373.407 1769.97,372.625 1767.13,372.415C1764.29,372.205 1755.67,371.815 1747.99,371.55C1740.3,371.285 1723.24,370.687 1710.08,370.223C1696.92,369.758 1674.92,369.377 1661.19,369.369C1645.93,369.364 1636.03,369.031 1635.7,368.512C1635.42,368.046 1643.94,355.419 1654.65,340.453C1705.62,269.2 1739.59,218.801 1749.42,199.87C1753.58,191.854 1753.84,186.776 1750.42,180.494C1746.33,172.984 1738.82,169.499 1732.45,172.161C1729.95,173.203 1728.3,175.012 1725.09,180.21C1709.21,205.947 1668.84,264.869 1621.65,331.177L1595.26,368.253L1572.84,368.693C1560.51,368.935 1550.15,368.976 1549.81,368.785C1548.94,368.288 1593.47,305.076 1606.26,288.671C1609.33,284.728 1613.38,280.267 1615.26,278.758C1621.95,273.382 1621.73,266.069 1614.67,259.211C1610.1,254.763 1603.14,252.238 1598.07,253.188C1594.09,253.936 1590.41,257.637 1589.2,262.115C1588.02,266.5 1578.32,282.665 1558.27,313.676C1532.83,353.012 1523.08,367.48 1521.06,368.892C1519.82,369.763 1517.17,370.233 1513.47,370.233C1510.35,370.234 1488.22,371.228 1464.29,372.441C1440.36,373.654 1411,374.97 1399.04,375.365C1387.07,375.76 1376.65,376.354 1375.88,376.685C1372.61,378.084 1371.52,384.492 1374.02,387.578C1375.43,389.323 1376.72,389.517 1392.08,390.301C1401.17,390.765 1413.47,391.508 1419.41,391.953C1430.45,392.779 1433.4,392.324 1433.4,389.793C1433.4,389.101 1434.28,388.354 1435.36,388.134C1436.44,387.913 1450.43,387.117 1466.46,386.365C1482.5,385.613 1498.69,384.762 1502.45,384.475C1508.41,384.021 1509.2,384.124 1508.54,385.273C1507.22,387.602 1488.96,408.578 1480.85,417.095C1465.01,433.719 1445.78,448.536 1428.39,457.514C1419.44,462.136 1403.75,468.654 1396.59,470.722L1391.53,472.182L1388.51,469.067C1383.7,464.124 1379.22,463.854 1369.2,467.904C1366.23,469.103 1363.8,469.739 1363.8,469.316C1363.8,468.893 1364.09,468.547 1364.45,468.547C1364.81,468.547 1367.94,465.898 1371.41,462.661C1377.04,457.405 1377.72,456.431 1377.72,453.556C1377.72,449.05 1373.45,444.186 1369.49,444.186C1365.34,444.186 1360.81,447.821 1345.09,463.76C1327.97,481.119 1312.3,493.588 1273.61,520.623L1262.16,528.623L1254.04,523.35C1249.56,520.45 1240.91,515.532 1234.81,512.422C1228.71,509.312 1223.72,506.451 1223.72,506.064C1223.72,504.622 1260.15,464.669 1260.84,465.357C1261.05,465.564 1258.99,469.401 1256.26,473.884C1245.24,492.021 1242.34,500.801 1246.44,503.67C1248.94,505.419 1249.87,504.866 1252.54,500.066C1255.54,494.648 1262.98,484.868 1276.59,468.466C1293.69,447.847 1301.34,437.235 1310.15,421.914C1313.4,416.27 1314.2,414.056 1314.2,410.786C1314.2,400.694 1304.42,391.947 1295.96,394.481C1291.3,395.878 1281.65,404.401 1258.95,427.159C1238.72,447.439 1223.03,464.55 1206.88,483.932C1202.03,489.762 1197.42,494.558 1196.65,494.59C1195.88,494.623 1192.35,493.453 1188.82,491.99C1177.18,487.174 1142.03,474.127 1109.31,462.475C1021.99,431.383 991.838,417.036 972.273,397.276C962.946,387.856 959.802,381.986 959.356,373.161C958.464,355.492 970.817,337.214 1000.36,312.484C1052.27,269.036 1161.31,203.914 1251.56,162.459C1283.94,147.587 1317.68,135.259 1317.68,138.303C1317.68,139.773 1308.66,153.257 1299.88,164.897C1276.36,196.098 1233.37,245.971 1180.69,303.185C1144.42,342.577 1140.2,347.804 1140.2,353.217C1140.2,358.965 1146.63,365.061 1151.08,363.54C1152.21,363.152 1170.64,345.803 1192.04,324.987C1254.03,264.677 1299.9,215.74 1329.75,178.09C1352.32,149.608 1358.33,132.868 1351.19,118.288C1346.5,108.706 1335.65,102.252 1324.23,102.252C1309.39,102.252 1280.14,111.258 1245.9,126.371C1226.81,134.802 1186.38,154.571 1166.09,165.401C1119.3,190.379 1059.67,226.474 1024.91,250.857C969.87,289.466 942.433,318.259 934.728,345.493C932.238,354.297 932.066,367.944 934.34,376.289C940.759,399.842 961.475,420.68 995.729,438.04C1019.81,450.246 1039.51,457.631 1108.43,480.29C1162,497.9 1187.17,506.656 1187.17,507.675C1187.17,508.029 1185.81,510.101 1184.15,512.279C1167.71,533.815 1154.11,561.389 1154.11,573.204C1154.11,586.15 1163.58,595.678 1175.26,594.473C1190.11,592.94 1218.45,578.258 1252.16,554.635C1258.95,549.876 1264.85,545.983 1265.28,545.983C1267.37,545.983 1277.87,558.409 1280.47,563.964C1282.94,569.247 1283.25,570.733 1283.19,577.305C1283.07,592.874 1273.94,609.385 1253.15,631.674C1213.98,673.663 1117.83,737.563 997.938,801.283C973.036,814.519 910.495,845.583 888.311,855.735C804.52,894.081 745.748,916.758 697.768,929.256C668.195,936.959 644.747,938.866 639.846,933.965C632.149,926.269 650.313,893.623 686.042,850.937C700.753,833.361 715.017,818.063 735.476,797.917C740.484,792.985 745.331,788.275 750.152,783.676C750.051,783.654 648.632,871.107 632.583,901.885C624.993,916.441 623.387,925.857 626.896,935.235C630.296,944.323 639.233,950.756 650.535,952.252L650.537,952.252C675.019,955.493 728.344,941.924 795.838,915.279C949.945,854.442 1137.69,749.833 1230.88,672.88C1245.71,660.634 1268.94,637.098 1277.42,625.718C1285.24,615.22 1291.55,603.286 1293.81,594.706C1295.82,587.08 1295.84,574.882 1293.84,568.169C1291.42,559.99 1286.62,551.694 1280.47,545.055C1277.37,541.7 1275.1,538.677 1275.44,538.336C1277.72,536.024 1299.03,521.09 1299.25,521.652C1299.39,522.037 1298.48,524.388 1297.22,526.875C1291.87,537.429 1291.84,547.709 1297.13,553.32C1303.99,560.598 1314.35,557.432 1335.56,541.568C1351.95,529.316 1377.25,504.254 1385.5,492.103C1388.38,487.867 1389.49,486.925 1392.2,486.416C1403.73,484.253 1429.56,473.719 1443.57,465.466C1448.72,462.43 1453.07,460.078 1453.23,460.239C1453.39,460.399 1447.88,468.109 1440.98,477.372C1388.71,547.587 1360.22,590.771 1331.07,643.986C1314.55,674.142 1303.07,696.847 1302.35,700.781C1302.04,702.495 1300.04,706.606 1297.91,709.917C1292.48,718.361 1292.17,719.405 1294.34,722.156C1295.71,723.897 1296.77,724.377 1298.82,724.174C1301.81,723.878 1302.36,723.121 1356.37,645.169C1371.13,623.874 1418.18,556.283 1460.94,494.967L1538.68,383.482L1543.25,382.978C1545.76,382.701 1556.2,382.212 1566.44,381.892C1582.11,381.402 1584.99,381.501 1584.6,382.513C1584.35,383.175 1573.98,398.014 1561.55,415.488C1503.98,496.464 1454.77,570.166 1401.79,654.739C1327.41,773.489 1283.8,862.94 1286.69,890.823C1288.08,904.187 1296.65,913.082 1308.17,913.127C1325.14,913.194 1349.08,897.598 1402.95,851.359C1468.01,795.516 1546.09,720.654 1573.56,687.78C1586.07,672.801 1615.84,633.182 1618.91,627.409C1619.81,625.722 1619.77,625.686 1618.29,626.898C1617.42,627.616 1608.69,637.352 1598.9,648.534C1567.05,684.908 1551.04,701.13 1510.34,738.265C1425.21,815.916 1358.81,869 1326.38,885.307C1319.62,888.706 1310.65,892.266 1308.85,892.266C1304,892.266 1320.93,852.615 1344.69,808.305C1370.44,760.307 1397.32,715.688 1442.69,645.604C1500.41,556.453 1535.56,505.33 1606.34,407.548L1625.62,380.916L1632.83,380.34C1644.73,379.39 1766.28,379.635 1789.69,380.656C1810.62,381.569 1826.25,382.598 1837.76,383.822C1842.91,384.368 1843.2,384.3 1843.2,382.552C1843.2,381.347 1842.52,380.549 1841.24,380.259ZM1239.62,543.68C1217.48,558.11 1200.14,567.259 1185.71,572.138C1177.71,574.843 1175,575.262 1175,573.794C1175,572.389 1179.12,564.585 1183.9,556.964C1189.41,548.169 1195.08,540.309 1204.89,527.844C1211.97,518.854 1212.88,518.015 1215.01,518.442C1218.95,519.229 1245.27,531.876 1249.35,534.941C1250.97,536.153 1250.41,536.653 1239.62,543.68ZM1355.83,503.98C1343.2,516.501 1333.76,524.741 1324.16,531.617C1321.26,533.692 1316.22,536.856 1312.96,538.647C1307.21,541.81 1307.06,541.844 1307.67,539.81C1310.18,531.523 1324.25,511.608 1342.12,491.039L1351.9,479.787L1353.01,483.013C1354.8,488.207 1357.65,490.428 1363.35,491.057L1368.31,491.604L1355.83,503.98Z" style="fill-rule:nonzero;"/>
            </g>
            <g>
                <path d="M780.682,754.679C780.8,753.975 780.924,753.272 781.05,752.57C780.442,754.064 779.84,755.56 779.235,757.055C779.659,756.683 780.086,756.31 780.513,755.937C780.569,755.517 780.625,755.098 780.682,754.679Z" style="fill-rule:nonzero;"/>
            </g>
            <g>
                <path d="M840.911,453.972C842.576,454.809 844.207,455.494 844.535,455.495C846.544,455.499 850.198,453.198 855.696,448.466C864.832,440.603 866.238,436.063 862.103,427.767C857.75,419.033 848.53,415.991 842.64,421.347C839.161,424.511 833.976,437.164 833.949,442.535C833.929,447.435 836.585,451.799 840.911,453.972Z" style="fill-rule:nonzero;"/>
            </g>
        </g>
    </g>
</svg>
