<?xml version="1.0" encoding="iso-8859-1"?>
<!-- Generator: Adobe Illustrator 26.5.0, SVG Export Plug-In . SVG Version: 6.00 Build 0)  -->
<svg version="1.1" id="Layer_1" xmlns="http://www.w3.org/2000/svg" xmlns:xlink="http://www.w3.org/1999/xlink" x="0px" y="0px"
	 viewBox="0 0 1843.2 1017.522" style="enable-background:new 0 0 1843.2 1017.522;" xml:space="preserve">
<rect style="fill:none;" width="1843.2" height="1017.522"/>
<g>
	<g>
		<path d="M439.594,685.374h-6.13l-11.789-47.695h5.12l9.835,42.373h0.135l9.835-42.373h4.985L439.594,685.374z"/>
		<path d="M490.589,685.374h-6.198l-7.814-40.824h-0.135l-7.747,40.824h-6.198l-9.364-47.695h4.783l7.814,41.7h0.135l7.949-41.7
			h5.659l8.084,41.7h0.135l7.747-41.7h4.581L490.589,685.374z"/>
		<path d="M545.695,661.593c0,3.907-0.404,7.343-1.213,10.307c-0.808,2.964-1.977,5.446-3.503,7.444
			c-1.527,1.999-3.358,3.503-5.49,4.514c-2.134,1.01-4.503,1.516-7.107,1.516h-10.24v-47.695h10.307
			c2.604,0,4.974,0.505,7.107,1.516c2.133,1.01,3.952,2.526,5.457,4.547c1.504,2.021,2.661,4.525,3.469,7.511
			C545.291,654.24,545.695,657.686,545.695,661.593z M541.047,661.593c0-3.379-0.326-6.32-0.977-8.821
			c-0.652-2.501-1.549-4.562-2.695-6.185c-1.145-1.622-2.493-2.839-4.042-3.65c-1.549-0.811-3.223-1.217-5.019-1.217h-5.524v39.611
			h5.524c1.796,0,3.469-0.405,5.019-1.217c1.549-0.811,2.897-2.027,4.042-3.651c1.145-1.622,2.043-3.673,2.695-6.151
			C540.72,667.835,541.047,664.928,541.047,661.593z"/>
		<path d="M573.988,685.374l-8.623-22.096h-6.13v22.096h-4.648v-47.695h11.452c1.572,0,3.087,0.214,4.547,0.64
			c1.459,0.427,2.762,1.135,3.907,2.122c1.145,0.988,2.065,2.29,2.762,3.907c0.696,1.617,1.044,3.594,1.044,5.928
			c0,2.021-0.259,3.762-0.775,5.221c-0.517,1.46-1.191,2.684-2.021,3.672c-0.831,0.988-1.751,1.751-2.762,2.29
			c-1.01,0.539-2.01,0.876-2.998,1.01l9.297,22.905H573.988z M573.718,650.511c0-1.699-0.236-3.12-0.707-4.261
			c-0.472-1.141-1.101-2.046-1.886-2.718c-0.786-0.672-1.684-1.141-2.695-1.41c-1.01-0.268-2.055-0.403-3.133-0.403h-6.063v17.852
			h6.265c2.56,0,4.569-0.794,6.029-2.382C572.988,655.602,573.718,653.376,573.718,650.511z"/>
		<path d="M586.653,685.374v-47.695h4.716v47.695H586.653z"/>
		<path d="M615.148,685.374h-6.13l-11.789-47.695h5.12l9.836,42.373h0.135l9.836-42.373h4.985L615.148,685.374z"/>
		<path d="M633,685.374v-47.695h4.716v47.695H633z"/>
		<path d="M669.865,685.374l-16.589-39.679h-0.202v39.679h-4.446v-47.695h5.861l16.505,39.679h0.202v-39.679h4.312v47.695H669.865z"
			/>
		<path d="M707.809,685.208c-1.864,0.694-4.054,1.041-6.568,1.041c-2.65,0-5.03-0.584-7.141-1.752
			c-2.112-1.167-3.885-2.829-5.322-4.985c-1.438-2.156-2.538-4.76-3.301-7.815c-0.764-3.054-1.145-6.467-1.145-10.24
			c0-3.547,0.37-6.848,1.112-9.903c0.741-3.054,1.807-5.692,3.2-7.916c1.392-2.223,3.099-3.963,5.12-5.221
			c2.021-1.257,4.311-1.886,6.871-1.886c2.335,0,4.468,0.472,6.4,1.415c1.93,0.943,3.547,2.425,4.85,4.446l-3.032,3.099
			c-1.034-1.571-2.235-2.75-3.604-3.537c-1.37-0.785-2.841-1.179-4.412-1.179c-1.977,0-3.683,0.55-5.12,1.65
			c-1.438,1.101-2.639,2.594-3.604,4.48c-0.966,1.886-1.684,4.076-2.156,6.568c-0.472,2.493-0.707,5.153-0.707,7.983
			c0,2.964,0.246,5.704,0.741,8.219c0.494,2.516,1.246,4.682,2.257,6.501c1.011,1.819,2.267,3.245,3.773,4.278
			c1.504,1.034,3.244,1.549,5.221,1.549c1.437,0,2.728-0.179,3.874-0.539c1.145-0.359,2.099-0.876,2.863-1.55v-16.168h-6.804v-4.042
			h11.385v22.712C711.255,683.584,709.672,684.514,707.809,685.208z"/>
		<path d="M722.932,694.198h-3.638l3.907-16.707h4.446L722.932,694.198z"/>
		<path d="M779.856,685.374h-6.198l-7.815-40.824h-0.135l-7.747,40.824h-6.198l-9.364-47.695h4.783l7.815,41.7h0.135l7.949-41.7
			h5.659l8.084,41.7h0.135l7.747-41.7h4.581L779.856,685.374z"/>
		<path d="M795.754,685.374v-47.695h19.199v4.177h-14.618v16.707h13.675v4.042h-13.675v18.526h15.292v4.244H795.754z"/>
		<path d="M848.502,672.372c0,2.471-0.394,4.537-1.179,6.198c-0.786,1.662-1.785,2.998-2.998,4.008
			c-1.213,1.01-2.549,1.729-4.008,2.156c-1.46,0.427-2.863,0.64-4.21,0.64h-12.193v-47.695h10.81c1.351,0,2.747,0.18,4.189,0.539
			c1.441,0.36,2.759,0.977,3.953,1.853c1.194,0.876,2.173,2.066,2.939,3.57c0.765,1.505,1.148,3.402,1.148,5.692
			c0,1.617-0.194,3.021-0.579,4.211c-0.385,1.19-0.896,2.223-1.531,3.099c-0.636,0.876-1.361,1.595-2.178,2.156
			c-0.817,0.562-1.656,1-2.517,1.314v0.135c0.853,0.18,1.774,0.539,2.762,1.078c0.987,0.539,1.897,1.292,2.728,2.257
			c0.83,0.966,1.516,2.179,2.055,3.638C848.233,668.678,848.502,670.396,848.502,672.372z M842.507,650.04
			c0-1.565-0.236-2.884-0.707-3.958c-0.472-1.074-1.101-1.935-1.886-2.583c-0.786-0.648-1.674-1.107-2.661-1.376
			c-0.988-0.268-1.999-0.403-3.031-0.403h-5.861v16.841h5.995c0.987,0,1.964-0.156,2.93-0.469c0.965-0.313,1.829-0.816,2.594-1.51
			c0.763-0.694,1.392-1.577,1.886-2.65C842.259,652.859,842.507,651.562,842.507,650.04z M843.854,672.068
			c0-1.789-0.27-3.3-0.808-4.53c-0.539-1.231-1.236-2.226-2.088-2.987c-0.854-0.761-1.808-1.321-2.863-1.679
			c-1.056-0.358-2.078-0.537-3.065-0.537h-6.669v18.997h6.669c1.213,0,2.358-0.179,3.436-0.537c1.078-0.358,2.021-0.917,2.829-1.678
			c0.808-0.761,1.437-1.723,1.886-2.887C843.629,675.066,843.854,673.679,843.854,672.068z"/>
		<path d="M896.668,661.593c0,3.907-0.404,7.343-1.213,10.307c-0.808,2.964-1.977,5.446-3.503,7.444
			c-1.527,1.999-3.358,3.503-5.49,4.514c-2.134,1.01-4.503,1.516-7.107,1.516h-10.24v-47.695h10.307
			c2.604,0,4.974,0.505,7.107,1.516c2.133,1.01,3.951,2.526,5.457,4.547c1.504,2.021,2.661,4.525,3.469,7.511
			C896.264,654.24,896.668,657.686,896.668,661.593z M892.02,661.593c0-3.379-0.326-6.32-0.977-8.821
			c-0.652-2.501-1.549-4.562-2.695-6.185c-1.145-1.622-2.493-2.839-4.042-3.65c-1.549-0.811-3.223-1.217-5.019-1.217h-5.524v39.611
			h5.524c1.796,0,3.469-0.405,5.019-1.217c1.549-0.811,2.897-2.027,4.042-3.651c1.145-1.622,2.043-3.673,2.695-6.151
			C891.694,667.835,892.02,664.928,892.02,661.593z"/>
		<path d="M905.56,685.374v-47.695h19.199v4.177h-14.618v16.707h13.675v4.042h-13.675v18.526h15.292v4.244H905.56z"/>
		<path d="M954.4,673.18c0,2.112-0.315,3.986-0.943,5.625c-0.63,1.64-1.494,3.031-2.594,4.177c-1.101,1.145-2.392,2.021-3.874,2.627
			s-3.055,0.909-4.716,0.909c-2.425,0-4.66-0.517-6.703-1.549c-2.044-1.033-3.695-2.402-4.952-4.109l2.897-3.301
			c1.032,1.482,2.334,2.627,3.907,3.436c1.571,0.808,3.166,1.213,4.783,1.213c2.156,0,3.963-0.763,5.423-2.29
			c1.459-1.526,2.189-3.705,2.189-6.534c0-1.347-0.225-2.537-0.674-3.57c-0.449-1.033-1.056-1.954-1.819-2.762
			c-0.764-0.808-1.628-1.526-2.594-2.156c-0.966-0.628-1.987-1.213-3.065-1.751c-1.303-0.629-2.538-1.336-3.705-2.122
			c-1.169-0.785-2.189-1.695-3.065-2.728c-0.876-1.032-1.583-2.257-2.122-3.671c-0.539-1.415-0.809-3.065-0.809-4.952
			c0-2.2,0.337-4.12,1.011-5.76c0.674-1.639,1.583-3.008,2.728-4.109c1.145-1.1,2.436-1.92,3.874-2.459
			c1.437-0.539,2.941-0.809,4.514-0.809c2.156,0,4.098,0.371,5.827,1.112c1.728,0.741,3.177,1.898,4.345,3.469l-2.897,3.301
			c-0.899-1.302-1.954-2.234-3.166-2.796c-1.213-0.561-2.538-0.842-3.974-0.842c-0.943,0-1.876,0.168-2.796,0.505
			c-0.921,0.337-1.741,0.865-2.459,1.583c-0.719,0.719-1.303,1.64-1.752,2.762c-0.449,1.123-0.674,2.448-0.674,3.975
			c0,1.347,0.202,2.516,0.607,3.503c0.404,0.988,0.954,1.864,1.65,2.627c0.696,0.764,1.504,1.438,2.425,2.021
			c0.92,0.584,1.875,1.123,2.863,1.617c1.257,0.63,2.503,1.347,3.739,2.156c1.235,0.808,2.346,1.751,3.335,2.829
			c0.987,1.078,1.773,2.336,2.358,3.773C954.108,669.566,954.4,671.25,954.4,673.18z"/>
		<path d="M962.955,685.374v-47.695h4.715v47.695H962.955z"/>
		<path d="M999.972,685.208c-1.864,0.694-4.053,1.041-6.568,1.041c-2.65,0-5.03-0.584-7.141-1.752
			c-2.112-1.167-3.885-2.829-5.322-4.985c-1.438-2.156-2.538-4.76-3.301-7.815c-0.764-3.054-1.145-6.467-1.145-10.24
			c0-3.547,0.37-6.848,1.111-9.903c0.741-3.054,1.807-5.692,3.2-7.916c1.392-2.223,3.099-3.963,5.12-5.221
			c2.021-1.257,4.312-1.886,6.871-1.886c2.335,0,4.468,0.472,6.4,1.415c1.931,0.943,3.547,2.425,4.851,4.446l-3.031,3.099
			c-1.034-1.571-2.235-2.75-3.604-3.537c-1.371-0.785-2.841-1.179-4.413-1.179c-1.977,0-3.683,0.55-5.12,1.65
			c-1.438,1.101-2.639,2.594-3.604,4.48c-0.966,1.886-1.684,4.076-2.156,6.568c-0.472,2.493-0.708,5.153-0.708,7.983
			c0,2.964,0.246,5.704,0.741,8.219c0.494,2.516,1.246,4.682,2.257,6.501c1.01,1.819,2.267,3.245,3.772,4.278
			c1.504,1.034,3.244,1.549,5.221,1.549c1.437,0,2.728-0.179,3.874-0.539c1.145-0.359,2.099-0.876,2.863-1.55v-16.168h-6.804v-4.042
			h11.385v22.712C1003.419,683.584,1001.835,684.514,999.972,685.208z"/>
		<path d="M1035.861,685.374l-16.589-39.679h-0.202v39.679h-4.446v-47.695h5.861l16.505,39.679h0.202v-39.679h4.311v47.695H1035.861
			z"/>
		<path d="M1052.416,685.374v-47.695h4.715v47.695H1052.416z"/>
		<path d="M1089.281,685.374l-16.589-39.679h-0.202v39.679h-4.446v-47.695h5.861l16.505,39.679h0.202v-39.679h4.311v47.695H1089.281
			z"/>
		<path d="M1127.225,685.208c-1.864,0.694-4.053,1.041-6.568,1.041c-2.65,0-5.03-0.584-7.141-1.752
			c-2.112-1.167-3.885-2.829-5.322-4.985c-1.438-2.156-2.538-4.76-3.301-7.815c-0.764-3.054-1.145-6.467-1.145-10.24
			c0-3.547,0.37-6.848,1.111-9.903c0.741-3.054,1.807-5.692,3.2-7.916c1.392-2.223,3.099-3.963,5.12-5.221
			c2.021-1.257,4.312-1.886,6.871-1.886c2.335,0,4.468,0.472,6.4,1.415c1.931,0.943,3.547,2.425,4.851,4.446l-3.031,3.099
			c-1.034-1.571-2.235-2.75-3.604-3.537c-1.371-0.785-2.841-1.179-4.413-1.179c-1.977,0-3.683,0.55-5.12,1.65
			c-1.438,1.101-2.639,2.594-3.604,4.48c-0.966,1.886-1.684,4.076-2.156,6.568c-0.472,2.493-0.708,5.153-0.708,7.983
			c0,2.964,0.246,5.704,0.741,8.219c0.494,2.516,1.246,4.682,2.257,6.501c1.01,1.819,2.267,3.245,3.772,4.278
			c1.504,1.034,3.244,1.549,5.221,1.549c1.437,0,2.728-0.179,3.874-0.539c1.145-0.359,2.099-0.876,2.863-1.55v-16.168h-6.804v-4.042
			h11.385v22.712C1130.671,683.584,1129.088,684.514,1127.225,685.208z"/>
	</g>
	<g>
		<g>
			<path d="M92.41,1016.22c5.278-2.205,11.91-7.899,20.074-17.234c34.115-39.009,102.888-133.001,162.437-222.004
				c26.52-39.637,49.752-75.301,86.149-132.249c12.845-20.098,51.411-80.393,85.702-133.989
				c81.125-126.797,113.092-177.438,133.771-211.918c7.617-12.7,7.403-12.508,17.974-16.141c6.872-2.362,14.187-2.687,17.85-0.792
				c1.36,0.703,3.86,2.948,5.554,4.988c1.695,2.04,3.291,3.499,3.549,3.241c1.082-1.082-3.334-7.789-6.635-10.077
				c-3.024-2.096-4.61-2.524-10.312-2.783c-4.281-0.194-8.354,0.168-11.168,0.992c-2.488,0.73-4.429,0.934-4.429,0.467
				c0-0.457,2.694-5.406,5.986-10.998c46.464-78.918,73.698-139.277,79.175-175.478c5.903-39.02-6.515-66.442-36.969-81.643
				c-30.938-15.442-79.477-14.01-143.51,4.232c-102.606,29.232-223.695,94.338-335.795,180.548
				C71.532,264.816,18.343,322.221,2.798,367.009c-2.606,7.509-2.781,8.765-2.797,20.188c-0.016,10.673,0.237,12.881,2.044,17.836
				c6.992,19.174,26.395,35.047,55.185,45.148c10.216,3.584,33.286,9.207,46.724,11.388c29.457,4.781,30.571,4.82,130.509,4.589
				c50.964-0.118,94.837-0.218,97.498-0.218c6.157-0.004,8.554-1.526,7.174-4.556c-0.534-1.173-2.469-2.843-4.298-3.711
				c-3.112-1.477-8.924-1.622-90.35-2.26c-47.863-0.375-92.897-1.11-100.075-1.633c-27.645-2.015-53.376-6.382-74.533-12.648
				c-50.075-14.831-62.89-39.072-42.192-79.809c21.683-42.674,75.969-97.03,159.357-159.561
				C272.219,137.893,360.531,87.453,445.807,53.97c93.12-36.563,169.41-45.261,194.46-22.171
				c16.141,14.878,14.219,46.777-5.659,93.945c-6.269,14.876-25.678,53.468-36.976,73.52
				c-12.538,22.254-43.259,73.341-60.169,100.057l-13.768,21.751l-9.105,7.215c-61.645,48.849-101.557,87.534-150.542,145.915
				c-59.886,71.372-128.535,176.726-200.695,308c-46.04,83.757-91.065,173.96-100.481,201.305
				c-5.64,16.38-2.195,26.02,11.525,32.243l-0.001,0C79.15,1017.907,87.832,1018.133,92.41,1016.22z M160.528,842.236
				c64.239-129.565,137.923-253.049,204.294-342.368c45.308-60.972,89.614-109.825,134.574-148.382
				c8.411-7.213,9.685-8.163,8.707-6.488c-1.923,3.291-21.225,33.034-57.028,87.876c-48.109,73.691-87.516,134.231-120.471,185.076
				C262.42,723.149,211.563,797.667,152.593,878.779v0c-24.462,33.647-24.212,33.314-24.249,32.337
				C128.278,909.394,145.411,872.725,160.528,842.236z"/>
		</g>
		<g>
			<path d="M865.146,514.62c25.794-13.417,48.013-28.926,53.235-37.16c5.257-8.29,2.48-16.849-6.39-19.695
				c-10.623-3.408-62.567,31.04-70.984,47.075c-1.443,2.749-10.926,5.54-20.759,6.109c-6.834,0.396-8.11,0.258-8.564-0.926
				c-0.978-2.548,2.253-9.876,7.984-18.108c5.277-7.573,5.642-8.411,5.277-11.947c-0.279-2.7-1.114-4.515-2.88-6.256
				c-4.169-4.11-6.228-4.066-12.57,0.267c-8.163,5.577-51.544,32.054-60.053,36.652c-7.519,4.063-18.963,8.749-19.662,8.051
				c-0.618-0.618,1.085-3.471,10.859-18.187c10.458-15.746,11.497-18.941,8.002-24.596c-2.206-3.57-6.905-6.009-9.826-5.101
				c-2.534,0.788-16.716,11.028-35.826,25.869c-16.684,12.957-27.141,20.288-27.881,19.548c-0.249-0.249,2.765-4.91,6.699-10.358
				c11.421-15.816,14.458-20.506,15.064-23.266c1.331-6.059-3.364-13.747-9.664-15.826c-2.72-0.898-3.542-0.757-7.463,1.278
				c-2.424,1.258-4.537,2.157-4.695,1.999c-0.158-0.158,1.145-2.415,2.896-5.015c6.012-8.928,4.329-18.111-4.106-22.395
				c-4.579-2.325-7.126-1.995-10.758,1.396c-1.373,1.282-10.128,11.479-19.456,22.66c-15.742,18.869-25.908,29.501-44.608,46.65
				c-17.183,15.759-45.583,38.732-47.882,38.732c-0.54,0,0.882-3.426,3.16-7.613c15.522-28.526,39.109-62.493,57.413-82.68
				c4.104-4.525,7.32-8.845,7.32-9.831c0-2.602-2.248-6.484-4.856-8.384l-2.295-1.672l2.214-4.368
				c8.283-16.346,8.156-31.833-0.34-41.485c-7.007-7.961-16.57-9.78-26.48-5.038c-14.414,6.897-39.056,29.68-68.816,63.625
				c-39.343,44.875-65.648,89.274-67.121,113.291c-0.428,6.984-0.279,7.958,1.896,12.405c2.707,5.533,6.497,8.804,11.418,9.852
				l-0.001,0c4.246,0.905,9.072-0.104,14.421-3.015c10.57-5.753,33.941-25.307,57.565-48.163l14.618-14.143l-5.183,10.078
				c-9.652,18.766-11.092,25.842-6.302,30.969c1.647,1.763,3.36,2.702,4.931,2.702c3.627,0,12.548-5.287,25.489-15.105
				c6.395-4.852,12.316-9.326,13.157-9.941c1.373-1.005,1.627-0.734,2.479,2.652c1.952,7.753,7.603,12.824,14.289,12.824
				c3.016,0,4.206-0.862,13.934-10.094c11.039-10.475,33.173-29.059,34.611-29.059c0.452,0,0.842,1.664,0.842,3.698
				c0.039,7.44,5.857,15.462,12.56,17.317c8.088,2.239,20.35-3.599,39.071-18.602c5.808-4.654,10.843-8.472,11.19-8.483
				c0.348-0.011,0.397,1.148,0.112,2.577c-0.286,1.429-0.051,4.463,0.522,6.743c3.036,12.078,12.791,15.568,27.576,9.866
				c8.281-3.194,16.465-7.839,38.154-21.656l16.531-10.531l0.623,5.397c1.254,10.864,7.82,18.961,17.511,21.594
				c4.433,1.204,15.662,0.541,22.59-1.335l5.052-1.368l3.321,2.669c9.802,7.878,31.596,8.802,70.101,2.974
				c7.656-1.159,28.407-4.834,46.113-8.167s38.652-7.103,46.548-8.379c7.896-1.275,14.846-2.719,15.444-3.208
				c0.598-0.489,1.088-1.648,1.088-2.576c0-1.548-0.483-1.648-5.873-1.222c-3.23,0.255-10.375,0.689-15.878,0.963
				c-12.605,0.629-41.63,3.686-83.525,8.797c-31.373,3.827-59.481,5.738-63.233,4.298
				C853.954,520.809,856.596,519.067,865.146,514.62z M489.126,554.75L489.126,554.75c-5.643,3.963-8.194,5.23-7.307,3.63
				c11.749-21.207,29.753-46.601,48.888-68.952c14.556-17.003,35.325-39.084,45.524-48.4c12.869-11.755,13.15-11.99,13.684-11.456
				c0.261,0.261-4.982,11.193-11.651,24.292c-6.669,13.1-13.009,26.363-14.089,29.473c-1.645,4.74-3.103,6.827-9.009,12.892
				C535.628,516.293,504.084,544.244,489.126,554.75z"/>
		</g>
		<g>
			<path d="M1841.242,380.259c-11.512-2.617-25.518-4.319-50.246-6.108c-10.288-0.744-21.029-1.526-23.868-1.736
				c-2.839-0.21-11.453-0.6-19.141-0.865c-7.689-0.265-24.747-0.863-37.906-1.327c-13.16-0.465-35.16-0.846-48.889-0.854
				c-15.261-0.005-25.167-0.338-25.487-0.857c-0.289-0.466,8.235-13.093,18.942-28.059c50.971-71.253,84.946-121.652,94.769-140.583
				c4.16-8.016,4.423-13.094,1.004-19.376c-4.087-7.51-11.603-10.995-17.973-8.333c-2.495,1.042-4.147,2.851-7.354,8.049
				c-15.879,25.737-56.253,84.659-103.444,150.967l-26.387,37.076l-22.419,0.44c-12.33,0.242-22.694,0.283-23.03,0.092
				c-0.876-0.497,43.661-63.709,56.445-80.114c3.073-3.943,7.123-8.404,9-9.913c6.69-5.376,6.471-12.689-0.585-19.547
				c-4.577-4.448-11.536-6.973-16.6-6.023c-3.987,0.748-7.665,4.449-8.87,8.927c-1.18,4.385-10.88,20.55-30.937,51.561
				c-25.441,39.336-35.19,53.804-37.206,55.216c-1.244,0.871-3.891,1.341-7.589,1.341c-3.124,0.001-25.255,0.995-49.182,2.208
				c-23.927,1.213-53.291,2.529-65.254,2.924c-11.963,0.395-22.384,0.989-23.156,1.32c-3.266,1.399-4.359,7.807-1.858,10.893
				c1.414,1.745,2.702,1.939,18.054,2.723c9.092,0.464,21.392,1.207,27.332,1.652c11.046,0.826,13.995,0.371,13.995-2.16
				c0-0.692,0.881-1.439,1.958-1.659c1.077-0.221,15.073-1.017,31.104-1.769c16.031-0.752,32.226-1.603,35.989-1.89
				c5.957-0.454,6.745-0.351,6.09,0.798c-1.326,2.329-19.583,23.305-27.698,31.822c-15.838,16.624-35.067,31.441-52.45,40.419
				c-8.951,4.622-24.647,11.14-31.808,13.208l-5.057,1.46l-3.025-3.115c-4.801-4.943-9.283-5.213-19.309-1.163
				c-2.969,1.199-5.399,1.835-5.399,1.412c0-0.423,0.294-0.769,0.653-0.769c0.359,0,3.491-2.649,6.961-5.886
				c5.633-5.256,6.308-6.23,6.308-9.105c0-4.506-4.27-9.37-8.225-9.37c-4.15,0-8.681,3.635-24.402,19.574
				c-17.121,17.359-32.796,29.828-71.481,56.863l-11.447,8l-8.129-5.273c-4.471-2.9-13.121-7.818-19.223-10.928
				c-6.101-3.11-11.093-5.971-11.093-6.358c0-1.442,36.434-41.395,37.122-40.707c0.208,0.207-1.852,4.044-4.577,8.527
				c-11.024,18.137-13.92,26.917-9.824,29.786c2.498,1.749,3.434,1.196,6.095-3.604c3.004-5.418,10.448-15.198,24.052-31.6
				c17.103-20.619,24.754-31.231,33.565-46.552c3.246-5.644,4.052-7.858,4.052-11.128c0-10.092-9.785-18.839-18.241-16.305
				c-4.662,1.397-14.316,9.92-37.017,32.678c-20.228,20.28-35.921,37.391-52.065,56.773c-4.856,5.83-9.46,10.626-10.232,10.658
				c-0.771,0.033-4.295-1.137-7.83-2.6c-11.642-4.816-46.792-17.863-79.512-29.515c-87.314-31.092-117.469-45.439-137.034-65.199
				c-9.327-9.42-12.471-15.29-12.917-24.115c-0.892-17.669,11.461-35.947,41.007-60.677c51.91-43.448,160.95-108.57,251.198-150.025
				c32.376-14.872,66.124-27.2,66.124-24.156c0,1.47-9.026,14.954-17.803,26.594c-23.525,31.201-66.512,81.074-119.191,138.288
				c-36.27,39.392-40.494,44.619-40.494,50.032c0.007,5.748,6.431,11.844,10.878,10.323c1.134-0.388,19.569-17.737,40.964-38.553
				c61.991-60.31,107.866-109.247,137.708-146.897c22.574-28.482,28.578-45.222,21.444-59.802
				c-4.688-9.582-15.537-16.036-26.958-16.036c-14.846,0-44.096,9.006-78.328,24.119c-19.099,8.431-59.523,28.2-79.811,39.03
				c-46.791,24.978-106.425,61.073-141.184,85.456c-55.04,38.609-82.477,67.402-90.182,94.636
				c-2.49,8.804-2.662,22.451-0.388,30.796c6.419,23.553,27.135,44.391,61.389,61.751c24.084,12.206,43.784,19.591,112.705,42.25
				c53.563,17.61,78.74,26.366,78.74,27.385c0,0.354-1.361,2.426-3.023,4.604c-16.444,21.536-30.039,49.11-30.039,60.925
				c0,12.946,9.472,22.474,21.146,21.269c14.856-1.533,43.195-16.215,76.899-39.838c6.789-4.759,12.696-8.652,13.126-8.652
				c2.09,0,12.584,12.426,15.186,17.981c2.474,5.283,2.778,6.769,2.724,13.341c-0.128,15.569-9.252,32.08-30.046,54.369
				c-39.172,41.989-135.321,105.889-255.209,169.609c-24.902,13.236-87.443,44.3-109.627,54.452
				c-83.791,38.346-142.563,61.023-190.543,73.521c-29.573,7.703-53.021,9.61-57.922,4.709
				c-7.697-7.696,10.467-40.342,46.196-83.028c14.711-17.576,28.975-32.874,49.434-53.02c5.008-4.932,9.855-9.642,14.676-14.241
				c-0.101-0.022-101.52,87.431-117.569,118.209c-7.59,14.556-9.196,23.972-5.687,33.35c3.4,9.088,12.337,15.521,23.639,17.017
				l0.002,0c24.482,3.241,77.807-10.328,145.301-36.973c154.107-60.837,341.852-165.446,435.044-242.399
				c14.83-12.246,38.054-35.782,46.537-47.162c7.825-10.498,14.133-22.432,16.393-31.012c2.007-7.626,2.023-19.824,0.032-26.537
				c-2.425-8.179-7.224-16.475-13.37-23.114c-3.106-3.355-5.372-6.378-5.035-6.719c2.283-2.312,23.591-17.246,23.806-16.684
				c0.147,0.385-0.764,2.736-2.025,5.223c-5.348,10.554-5.384,20.834-0.093,26.445c6.864,7.278,17.221,4.112,38.437-11.752
				c16.386-12.252,41.689-37.314,49.94-49.465c2.876-4.236,3.986-5.178,6.696-5.687c11.533-2.163,37.36-12.697,51.366-20.95
				c5.152-3.036,9.499-5.388,9.66-5.227c0.16,0.16-5.35,7.87-12.246,17.133c-52.273,70.215-80.761,113.399-109.914,166.614
				c-16.52,30.156-28.001,52.861-28.718,56.795c-0.312,1.714-2.31,5.825-4.439,9.136c-5.431,8.444-5.735,9.488-3.572,12.239
				c1.369,1.741,2.433,2.221,4.478,2.018c2.996-0.296,3.547-1.053,57.559-79.005c14.755-21.295,61.809-88.886,104.565-150.202
				l77.739-111.485l4.568-0.504c2.512-0.277,12.95-0.766,23.194-1.086c15.669-0.49,18.553-0.391,18.163,0.621
				c-0.255,0.662-10.627,15.501-23.051,32.975c-57.569,80.976-106.783,154.678-159.758,239.251
				c-74.383,118.75-117.994,208.201-115.1,236.084c1.387,13.364,9.952,22.259,21.478,22.304
				c16.973,0.067,40.904-15.529,94.777-61.768c65.062-55.843,143.141-130.705,170.608-163.579
				c12.515-14.979,42.28-54.598,45.355-60.371c0.898-1.687,0.854-1.723-0.622-0.511c-0.874,0.718-9.599,10.454-19.39,21.636
				c-31.846,36.374-47.857,52.596-88.564,89.731c-85.121,77.651-151.529,130.735-183.952,147.042
				c-6.759,3.399-15.729,6.959-17.537,6.959c-4.85,0,12.079-39.651,35.848-83.961c25.747-47.998,52.621-92.617,97.997-162.701
				c57.72-89.151,92.863-140.274,163.647-238.056l19.278-26.632l7.212-0.576c11.899-0.95,133.453-0.705,156.862,0.316
				c20.925,0.913,36.555,1.942,48.071,3.166c5.145,0.546,5.438,0.478,5.438-1.27C1843.2,381.347,1842.518,380.549,1841.242,380.259z
				 M1239.624,543.68c-22.146,14.43-39.48,23.579-53.915,28.458v0c-8.001,2.705-10.714,3.124-10.714,1.656
				c0-1.405,4.13-9.209,8.906-16.83c5.512-8.795,11.178-16.655,20.994-29.12c7.079-8.99,7.982-9.829,10.117-9.402
				c3.937,0.787,30.26,13.434,34.342,16.499C1250.966,536.153,1250.409,536.653,1239.624,543.68z M1355.829,503.98
				c-12.624,12.521-22.067,20.761-31.669,27.637v0c-2.899,2.075-7.937,5.239-11.195,7.03c-5.755,3.163-5.907,3.197-5.291,1.163
				c2.51-8.287,16.577-28.202,34.451-48.771l9.778-11.252l1.109,3.226c1.785,5.194,4.64,7.415,10.337,8.044l4.958,0.547
				L1355.829,503.98z"/>
		</g>
		<g>
			<path d="M780.682,754.679c0.118-0.704,0.242-1.407,0.368-2.109c-0.608,1.494-1.21,2.99-1.815,4.485
				c0.424-0.372,0.851-0.745,1.278-1.118C780.569,755.517,780.625,755.098,780.682,754.679z"/>
		</g>
		<g>
			<path d="M840.911,453.972c1.665,0.837,3.296,1.522,3.624,1.523c2.009,0.004,5.663-2.297,11.161-7.029
				c9.136-7.863,10.542-12.403,6.407-20.699c-4.353-8.734-13.573-11.776-19.463-6.42c-3.479,3.164-8.664,15.817-8.691,21.188
				C833.929,447.435,836.585,451.799,840.911,453.972L840.911,453.972z"/>
		</g>
	</g>
	<g>
		<path d="M600.249,714.601v43.653H595.6v-43.653h-9.162v-4.042h23.039v4.042H600.249z"/>
		<path d="M634.134,758.254l-2.897-11.924h-14.686l-3.031,11.924h-4.783l12.126-47.695h6.4l11.789,47.695H634.134z M624.097,714.803
			h-0.27l-6.602,27.755h13.338L624.097,714.803z"/>
		<path d="M652.121,714.601v43.653h-4.648v-43.653h-9.162v-4.042h23.039v4.042H652.121z"/>
		<path d="M675.16,714.601v43.653h-4.648v-43.653h-9.162v-4.042h23.039v4.042H675.16z"/>
		<path d="M718.544,734.339c0,3.728-0.36,7.13-1.078,10.206c-0.719,3.077-1.752,5.716-3.099,7.916
			c-1.347,2.201-2.987,3.907-4.918,5.12c-1.932,1.213-4.132,1.819-6.602,1.819c-2.471,0-4.682-0.606-6.636-1.819
			c-1.954-1.213-3.616-2.919-4.985-5.12c-1.37-2.2-2.415-4.839-3.133-7.916c-0.719-3.076-1.078-6.478-1.078-10.206
			c0-3.682,0.347-7.062,1.044-10.139c0.696-3.076,1.718-5.703,3.065-7.882c1.347-2.178,2.998-3.874,4.951-5.086
			c1.954-1.213,4.21-1.819,6.77-1.819c2.469,0,4.67,0.607,6.602,1.819c1.93,1.213,3.57,2.908,4.918,5.086
			c1.347,2.179,2.38,4.806,3.099,7.882C718.184,727.277,718.544,730.657,718.544,734.339z M713.626,734.339
			c0-2.874-0.225-5.568-0.674-8.084c-0.45-2.515-1.135-4.693-2.055-6.535c-0.921-1.841-2.055-3.301-3.402-4.379
			c-1.347-1.078-2.897-1.617-4.648-1.617c-1.842,0-3.447,0.539-4.817,1.617c-1.37,1.078-2.504,2.538-3.402,4.379
			c-0.899,1.842-1.573,4.02-2.021,6.535c-0.45,2.516-0.674,5.21-0.674,8.084c0,2.875,0.224,5.569,0.674,8.084
			c0.448,2.516,1.122,4.716,2.021,6.602c0.898,1.886,2.031,3.368,3.402,4.446c1.369,1.078,2.975,1.617,4.817,1.617
			c1.796,0,3.368-0.539,4.716-1.617c1.347-1.078,2.469-2.56,3.368-4.446c0.898-1.886,1.572-4.086,2.021-6.602
			C713.401,739.909,713.626,737.214,713.626,734.339z"/>
		<path d="M756.942,734.339c0,3.728-0.36,7.13-1.078,10.206c-0.719,3.077-1.752,5.716-3.099,7.916
			c-1.347,2.201-2.987,3.907-4.918,5.12c-1.932,1.213-4.132,1.819-6.602,1.819c-2.471,0-4.682-0.606-6.636-1.819
			c-1.954-1.213-3.616-2.919-4.985-5.12c-1.37-2.2-2.415-4.839-3.133-7.916c-0.719-3.076-1.078-6.478-1.078-10.206
			c0-3.682,0.347-7.062,1.044-10.139c0.696-3.076,1.718-5.703,3.065-7.882c1.347-2.178,2.998-3.874,4.951-5.086
			c1.954-1.213,4.21-1.819,6.77-1.819c2.469,0,4.67,0.607,6.602,1.819c1.93,1.213,3.57,2.908,4.918,5.086
			c1.347,2.179,2.38,4.806,3.099,7.882C756.582,727.277,756.942,730.657,756.942,734.339z M752.024,734.339
			c0-2.874-0.225-5.568-0.674-8.084c-0.45-2.515-1.135-4.693-2.055-6.535c-0.921-1.841-2.055-3.301-3.402-4.379
			c-1.347-1.078-2.897-1.617-4.648-1.617c-1.842,0-3.447,0.539-4.817,1.617c-1.37,1.078-2.504,2.538-3.402,4.379
			c-0.899,1.842-1.573,4.02-2.021,6.535c-0.45,2.516-0.674,5.21-0.674,8.084c0,2.875,0.224,5.569,0.674,8.084
			c0.448,2.516,1.122,4.716,2.021,6.602c0.898,1.886,2.031,3.368,3.402,4.446c1.369,1.078,2.975,1.617,4.817,1.617
			c1.796,0,3.368-0.539,4.716-1.617c1.347-1.078,2.469-2.56,3.368-4.446c0.898-1.886,1.572-4.086,2.021-6.602
			C751.799,739.909,752.024,737.214,752.024,734.339z"/>
		<path d="M765.834,758.254v-47.695h19.199v4.177h-14.618v16.707h13.675v4.042h-13.675v18.526h15.292v4.244H765.834z"/>
		<path d="M821.546,734.474c0,3.907-0.404,7.343-1.213,10.307c-0.808,2.964-1.977,5.446-3.503,7.444
			c-1.527,1.999-3.358,3.503-5.49,4.514c-2.134,1.01-4.503,1.516-7.107,1.516h-10.24v-47.695H804.3c2.604,0,4.974,0.505,7.107,1.516
			c2.133,1.01,3.951,2.526,5.457,4.547c1.504,2.021,2.661,4.525,3.469,7.511C821.141,727.12,821.546,730.567,821.546,734.474z
			 M816.897,734.474c0-3.379-0.326-6.32-0.977-8.821c-0.652-2.501-1.549-4.562-2.695-6.185c-1.145-1.622-2.493-2.839-4.042-3.65
			c-1.549-0.811-3.223-1.217-5.019-1.217h-5.524v39.611h5.524c1.796,0,3.469-0.405,5.019-1.217c1.549-0.811,2.897-2.027,4.042-3.651
			c1.145-1.622,2.043-3.673,2.695-6.151C816.571,740.716,816.897,737.808,816.897,734.474z"/>
		<path d="M864.288,758.089c-1.864,0.694-4.054,1.041-6.568,1.041c-2.65,0-5.03-0.584-7.141-1.752
			c-2.112-1.167-3.885-2.829-5.322-4.985c-1.438-2.156-2.538-4.76-3.301-7.815c-0.764-3.054-1.145-6.467-1.145-10.24
			c0-3.547,0.371-6.848,1.112-9.903c0.741-3.054,1.807-5.692,3.2-7.916c1.392-2.223,3.099-3.963,5.12-5.221
			c2.021-1.257,4.311-1.886,6.871-1.886c2.335,0,4.468,0.472,6.4,1.415c1.93,0.943,3.547,2.425,4.85,4.446l-3.031,3.099
			c-1.034-1.571-2.235-2.75-3.604-3.537c-1.37-0.785-2.841-1.179-4.412-1.179c-1.977,0-3.683,0.551-5.12,1.65
			c-1.438,1.101-2.639,2.594-3.604,4.48c-0.966,1.886-1.684,4.076-2.156,6.568c-0.472,2.493-0.707,5.153-0.707,7.983
			c0,2.964,0.246,5.704,0.741,8.219c0.494,2.516,1.246,4.682,2.257,6.501c1.011,1.819,2.267,3.245,3.773,4.278
			c1.504,1.034,3.244,1.549,5.221,1.549c1.437,0,2.728-0.179,3.874-0.539c1.145-0.359,2.099-0.876,2.863-1.55V736.63h-6.804v-4.042
			h11.385v22.712C867.735,756.465,866.152,757.394,864.288,758.089z"/>
		<path d="M878.94,758.254v-47.695h19.199v4.177h-14.618v16.707h13.675v4.042h-13.675v18.526h15.292v4.244H878.94z"/>
		<path d="M907.099,758.254v-47.695h19.199v4.177H911.68v16.707h13.675v4.042H911.68v18.526h15.292v4.244H907.099z"/>
		<path d="M955.872,758.254L939.973,733.8h-0.067v24.454h-4.648v-47.695h4.648v21.422h0.067l14.956-21.422h5.457l-16.033,22.029
			l17.178,25.666H955.872z"/>
	</g>
</g>
</svg>
